<svg xmlns="http://www.w3.org/2000/svg" width="512" height="512" viewBox="0 0 512 512" version="1.1">
	<path d="M 262.516 151.659 C 238.979 156.702, 219.963 174.068, 212.319 197.500 C 210.165 204.106, 209.692 207.504, 209.605 217 C 209.487 230.056, 210.701 236.107, 215.587 246.807 C 218.892 254.046, 222.583 259.523, 228.316 265.694 L 231.283 268.888 226.392 274.947 C 223.034 279.107, 221.030 280.809, 220 280.375 C 216.988 279.106, 214.145 278.821, 212.774 279.650 C 211.356 280.508, 164.362 333.038, 160.230 338.385 C 155.475 344.537, 158.332 352.663, 167.390 358.750 C 172.302 362.051, 175.971 362.722, 180.236 361.100 C 183.569 359.833, 232.268 299.265, 232.812 295.711 C 233.080 293.960, 232.585 292.199, 231.484 290.982 C 229.802 289.124, 229.835 288.908, 232.277 285.772 C 233.678 283.972, 236.102 281.045, 237.662 279.268 L 240.500 276.035 247.500 279.496 C 257.903 284.639, 267.024 286.372, 280.397 285.747 C 293.730 285.123, 304.077 281.762, 314.986 274.509 C 332.888 262.608, 344 241.157, 344 218.500 C 344 175.096, 304.471 142.670, 262.516 151.659 M 267.347 162.095 C 235.354 167.440, 214.710 198.249, 221.511 230.500 C 223.839 241.539, 228.257 249.436, 236.914 258.034 C 249.039 270.075, 260.698 275.011, 276.960 274.988 C 292.884 274.966, 305.324 269.800, 316.471 258.580 C 327.582 247.396, 333 234.370, 333 218.839 C 333 202.278, 327.866 189.673, 316.471 178.258 C 303.187 164.950, 285.361 159.085, 267.347 162.095" stroke="none" fill="#000000" fill-rule="evenodd"/>
</svg>