<svg xmlns="http://www.w3.org/2000/svg" width="512" height="512" viewBox="0 0 512 512" version="1.1">
	<path d="M 158.183 111.829 C 151.078 118.467, 153.540 132.043, 162.379 134.960 C 164.738 135.739, 188.922 135.982, 244.291 135.782 C 322.264 135.502, 322.876 135.484, 325.677 133.404 C 331.841 128.829, 332.454 117.095, 326.806 111.819 L 323.788 109 242.500 109 L 161.212 109 158.183 111.829 M 169.286 144.451 C 159.015 147.661, 148.947 156.616, 144.182 166.780 L 141.500 172.500 141.231 274.430 C 140.991 365.697, 141.131 376.940, 142.573 381.900 C 146.255 394.563, 153.278 403.051, 164.777 408.734 L 172.396 412.500 241.948 412.500 L 311.500 412.500 317.282 410.166 C 328.163 405.774, 336.582 397.265, 341.113 386.081 C 343.122 381.119, 343.418 378.363, 343.779 361.250 L 344.184 342 350.408 342 C 369.534 342, 383.318 334.270, 390.569 319.478 L 393.500 313.500 393.500 266.979 L 393.500 220.458 390.203 213.761 C 386.039 205.303, 379.754 198.989, 371.408 194.880 C 365.664 192.052, 363.641 191.611, 354.556 191.207 L 344.233 190.748 343.819 182.107 C 342.952 163.965, 331.945 149.609, 315.068 144.609 C 310.299 143.196, 301.339 143.008, 241.568 143.067 C 188.219 143.119, 172.589 143.419, 169.286 144.451 M 168.459 160.367 C 162.822 162.992, 158.598 167.443, 155.828 173.676 C 154.054 177.668, 153.983 182.283, 154.236 277.778 L 154.500 377.703 158 384.514 C 162.188 392.663, 165.712 395.759, 168.875 394.067 C 171.679 392.566, 171.566 389.880, 168.581 387.076 C 167.250 385.826, 165.113 382.485, 163.831 379.652 L 161.500 374.500 161.225 302.892 L 160.949 231.285 166.225 230.651 C 186.569 228.208, 208.579 231.451, 237.500 241.153 C 247.400 244.475, 259.325 248.078, 264 249.162 C 279.058 252.650, 307.599 252.725, 321.792 249.313 L 324.085 248.762 323.792 311.631 C 323.469 381.173, 323.795 377.647, 316.893 386.268 C 313.385 390.651, 313.659 394, 317.527 394 C 320.586 394, 324.336 389.978, 327.783 383 L 330.500 377.500 330.769 278.010 L 331.038 178.520 327.959 172.265 C 324.679 165.602, 320.445 161.637, 314.252 159.427 C 311.260 158.359, 296.624 158.081, 242 158.054 L 173.500 158.020 168.459 160.367 M 344 265.878 L 344 324 353.387 324 C 362.325 324, 363.004 323.845, 367.580 320.750 C 370.530 318.755, 373.277 315.798, 374.693 313.093 C 376.996 308.692, 377 308.621, 376.991 266.593 L 376.981 224.500 373.996 219.296 C 369.561 211.562, 364.145 208.719, 352.820 208.177 L 344 207.755 344 265.878" stroke="none" fill="#000000" fill-rule="evenodd"/>
</svg>